#!OML:ASF G:\ViconDB\ViconDB\414\test\team2\shane.ASF
:FULLY-SPECIFIED
:DEGREES
306
root 2.12055 16.9738 24.6833 -9.68236 0.798801 -2.42346
lowerback 8.25654 2.28258 0.77088
upperback 2.17402 3.09741 -0.143819
thorax -2.32451 1.54168 -0.892115
lowerneck -13.6764 -0.978811 -4.16424
upperneck 20.5543 -2.60217 9.8471
head 8.86152 -0.509616 3.76275
rclavicle -4.88265e-015 8.34896e-015
rhumerus -32.0018 16.4685 -101.088
rradius 36.6819
rwrist 28.9618
rhand -29.7512 -14.0313
rfingers 7.12502
rthumb -3.07722 -43.9888
lclavicle -4.88265e-015 8.34896e-015
lhumerus -50.8277 -17.053 93.0436
lradius 17.5491
lwrist -13.0325
lhand -35.9712 9.13209
lfingers 7.12502
lthumb -9.08204 38.9166
rfemur 10.6291 -8.26398 10.893
rtibia 57.4605
rfoot -4.93901 -0.443846
rtoes -14.6664
lfemur -0.00671083 16.0521 -13.4805
ltibia 23.8052
lfoot -19.5276 -23.1372
ltoes -3.95913
307
root 2.14997 16.9918 24.8473 -9.84371 1.1986 -2.47507
lowerback 8.41028 2.03076 0.489584
upperback 2.37477 2.74356 0.0137373
thorax -2.23017 1.36725 -0.538842
lowerneck -13.7884 -0.863524 -4.21984
upperneck 20.3518 -2.34601 9.55935
head 8.78905 -0.424951 3.69696
rclavicle 7.22458e-015 4.77083e-015
rhumerus -32.4391 16.8923 -100.775
rradius 36.0211
rwrist 29.235
rhand -29.3715 -13.5649
rfingers 7.12502
rthumb -2.71047 -43.5275
lclavicle 7.22458e-015 4.77083e-015
lhumerus -49.8377 -18.4275 94.702
lradius 18.0001
lwrist -11.7349
lhand -36.4362 9.60693
lfingers 7.12502
lthumb -9.53068 39.3714
rfemur 9.09337 -8.81596 10.8403
rtibia 59.3605
rfoot -5.93723 -1.00877
rtoes -13.4185
lfemur 1.22826 15.815 -13.3796
ltibia 22.8485
lfoot -19.4532 -23.3055
ltoes -3.67039
308
root 2.18345 17.0009 25.0102 -10.0201 1.68981 -2.37041
lowerback 8.52001 1.82288 0.23408
upperback 2.56222 2.44709 0.0641215
thorax -2.11357 1.22074 -0.313924
lowerneck -13.8974 -0.817096 -4.48633
upperneck 20.3256 -2.21516 9.56337
head 8.79162 -0.381936 3.75918
rclavicle -3.03022e-014 -5.1684e-015
rhumerus -32.9106 16.5325 -100.148
rradius 35.1954
rwrist 31.0695
rhand -29.129 -13.0505
rfingers 7.12502
rthumb -2.47631 -43.0159
lclavicle -3.03022e-014 -5.1684e-015
lhumerus -48.8442 -19.8153 96.0776
lradius 18.4201
lwrist -11.0028
lhand -36.7888 9.68901
lfingers 7.12502
lthumb -9.87093 39.4376
rfemur 7.69659 -9.58946 10.5249
rtibia 60.8723
rfoot -6.83097 -1.07773
rtoes -14.2246
lfemur 2.40456 15.1687 -13.5796
ltibia 22.0351
lfoot -19.504 -23.1133
ltoes -3.49694
309
root 2.21082 17.0174 25.1672 -10.0137 2.24966 -2.65386
lowerback 8.49319 1.58321 0.18368
upperback 2.69843 2.13056 0.312975
thorax -1.97131 1.0632 0.00601616
lowerneck -13.8104 -0.777286 -4.71289
upperneck 20.0379 -2.05509 9.41506
head 8.66434 -0.346105 3.75636
rclavicle 3.29423e-014 7.15625e-015
rhumerus -33.4924 16.5924 -99.4827
rradius 34.7088
rwrist 31.4692
rhand -28.8588 -12.3389
rfingers 7.12502
rthumb -2.21535 -42.3071
lclavicle 3.29423e-014 7.15625e-015
lhumerus -47.5179 -21.1464 97.2826
lradius 18.6356
lwrist -10.4349
lhand -36.3718 9.43039
lfingers 7.12502
lthumb -9.46856 39.1977
rfemur 6.02343 -10.2183 10.8892
rtibia 62.0727
rfoot -7.72716 -1.15488
rtoes -13.6683
lfemur 3.25303 14.5807 -13.3636
ltibia 21.3161
lfoot -19.5077 -23.1233
ltoes -3.28228
310
root 2.24152 17.0242 25.3241 -10.1395 2.87917 -3.10195
lowerback 8.48713 1.25679 0.2127
upperback 2.9244 1.7061 0.631814
thorax -1.74358 0.851353 0.364126
lowerneck -14.141 -0.747014 -5.25697
upperneck 20.1351 -1.92228 9.59719
head 8.75254 -0.298197 3.93343
rclavicle -2.28113e-014 -1.94809e-014
rhumerus -33.9016 16.0997 -98.675
rradius 34.0635
rwrist 32.6563
rhand -28.4816 -11.9487
rfingers 7.12502
rthumb -1.85101 -41.9204
lclavicle -2.28113e-014 -1.94809e-014
lhumerus -46.0487 -22.489 98.4496
lradius 18.8454
lwrist -9.69605
lhand -36.5345 9.75264
lfingers 7.12502
lthumb -9.62553 39.5127
rfemur 4.60691 -11.1101 11.3468
rtibia 62.9416
rfoot -8.54982 -1.01889
rtoes -14.069
lfemur 4.14369 14.435 -12.8464
ltibia 20.8017
lfoot -19.7938 -23.6777
ltoes -3.41302
311
root 2.26838 17.0296 25.4769 -10.2357 3.48752 -3.30234
lowerback 8.54308 1.04455 0.141315
upperback 3.12068 1.42132 0.79324
thorax -1.576 0.70868 0.599773
lowerneck -14.2647 -0.723788 -5.28337
upperneck 20.0304 -1.83386 9.42525
head 8.73099 -0.275038 3.88645
rclavicle -3.77986e-014 -8.34896e-015
rhumerus -34.3528 15.7725 -97.9439
rradius 33.5255
rwrist 32.7997
rhand -28.3888 -11.8542
rfingers 7.12502
rthumb -1.76142 -41.8267
lclavicle -3.77986e-014 -8.34896e-015
lhumerus -44.3814 -23.7374 99.0993
lradius 18.8612
lwrist -10.0058
lhand -36.7997 9.78383
lfingers 7.12502
lthumb -9.88144 39.5319
rfemur 3.10983 -11.7449 11.6381
rtibia 63.5468
rfoot -9.44071 -0.766269
rtoes -13.6971
lfemur 4.94721 13.7671 -12.7271
ltibia 20.3703
lfoot -20.0611 -23.6021
ltoes -3.34503
312
root 2.27649 17.0263 25.6298 -10.2976 4.20543 -3.63352
lowerback 8.67901 0.807456 -0.0242889
upperback 3.21632 1.09682 0.957128
thorax -1.55512 0.545415 0.892337
lowerneck -14.3372 -0.731205 -5.40564
upperneck 20.0365 -1.83644 9.53106
head 8.7484 -0.273056 3.94472
rclavicle -8.97948e-015 -2.0276e-014
rhumerus -34.8735 14.8015 -97.2798
rradius 33.017
rwrist 33.1059
rhand -27.9744 -11.6621
rfingers 7.12502
rthumb -1.36115 -41.6375
lclavicle -8.97948e-015 -2.0276e-014
lhumerus -42.8698 -25.4442 99.7841
lradius 19.1401
lwrist -9.16108
lhand -35.9989 9.61135
lfingers 7.12502
lthumb -9.10875 39.3946
rfemur 1.63412 -12.6907 12.1943
rtibia 63.8658
rfoot -10.3034 -0.607434
rtoes -14.0462
lfemur 5.56352 13.3741 -12.3336
ltibia 20.1082
lfoot -20.3986 -23.9526
ltoes -3.4036
313
root 2.29768 17.0227 25.7838 -10.4895 4.86681 -3.62947
lowerback 8.82931 0.626269 -0.489106
upperback 3.41708 0.822202 1.18416
thorax -1.43544 0.404258 1.41494
lowerneck -14.472 -0.772509 -5.76361
upperneck 20.09 -1.80784 9.53758
head 8.79113 -0.282994 4.01448
rclavicle -1.36664e-016 7.35503e-015
rhumerus -35.2777 13.7603 -96.1613
rradius 32.2512
rwrist 33.9162
rhand -27.8922 -11.5129
rfingers 7.12502
rthumb -1.28178 -41.4888
lclavicle -1.36664e-016 7.35503e-015
lhumerus -42.8698 -25.4442 99.7841
lradius 19.1401
lwrist -9.16108
lhand -35.9989 9.61135
lfingers 7.12502
lthumb -9.10875 39.3946
rfemur 0.345904 -13.3051 12.2731
rtibia 63.9446
rfoot -11.2901 -0.269479
rtoes -13.5301
lfemur 6.37427 12.7038 -12.3968
ltibia 19.8864
lfoot -20.6073 -23.9485
ltoes -3.35311
314
root 2.31833 17.0177 25.9341 -10.4475 5.37032 -3.86196
lowerback 8.85121 0.484341 -0.393174
upperback 3.45222 0.643541 1.26673
thorax -1.40598 0.315076 1.464
lowerneck -14.5167 -0.842369 -6.0331
upperneck 20.1758 -1.89092 9.7472
head 8.83954 -0.319113 4.12728
rclavicle -4.37016e-015 -9.93923e-016
rhumerus -35.8669 12.6244 -95.3227
rradius 31.587
rwrist 34.1523
rhand -27.8234 -11.5618
rfingers 7.12502
rthumb -1.21538 -41.5381
lclavicle -4.37016e-015 -9.93923e-016
lhumerus -39.4154 -27.7626 100.559
lradius 19.1525
lwrist -10.1312
lhand -35.9826 9.50771
lfingers 7.12502
lthumb -9.09298 39.2917
rfemur -1.26107 -13.9566 12.7708
rtibia 63.7457
rfoot -12.1418 0.0772795
rtoes -14.0294
lfemur 6.81644 12.209 -12.2029
ltibia 19.822
lfoot -21.0629 -23.9745
ltoes -3.81254
315
root 2.33617 16.9993 26.083 -10.5428 5.93914 -3.98937
lowerback 9.02804 0.302323 -0.598257
upperback 3.55826 0.388572 1.45562
thorax -1.38857 0.185092 1.79978
lowerneck -14.6941 -0.830613 -6.11572
upperneck 20.3505 -1.81001 9.53453
head 8.92343 -0.304283 4.08341
rclavicle -4.71803e-015 -2.127e-014
rhumerus -36.3909 11.4987 -94.1866
rradius 30.82
rwrist 35.1761
rhand -28.0604 -11.9456
rfingers 7.12502
rthumb -1.44426 -41.9204
lclavicle -4.71803e-015 -2.127e-014
lhumerus -37.7909 -28.9446 100.807
lradius 19.102
lwrist -11.6755
lhand -36.4511 9.3627
lfingers 7.12502
lthumb -9.54506 39.1265
rfemur -2.64634 -14.5589 13.1699
rtibia 63.3339
rfoot -12.9927 0.200676
rtoes -13.52
lfemur 7.54223 11.9915 -12.0495
ltibia 19.6301
lfoot -21.7936 -24.0211
ltoes -4.11217
316
root 2.36064 16.9845 26.2414 -10.7211 6.25269 -4.27679
lowerback 9.1374 0.221435 -0.35225
upperback 3.64992 0.303985 1.55064
thorax -1.35027 0.143512 1.76799
lowerneck -14.6047 -0.918849 -6.36886
upperneck 20.3909 -1.93395 9.7815
head 8.93572 -0.35786 4.1994
rclavicle -1.0256e-014 4.77083e-015
rhumerus -36.913 9.9974 -93.1424
rradius 30.0345
rwrist 35.8179
rhand -28.1465 -12.4196
rfingers 7.12502
rthumb -1.52739 -42.3939
lclavicle -1.0256e-014 4.77083e-015
lhumerus -36.069 -30.2014 101.077
lradius 19.6034
lwrist -10.1956
lhand -35.7631 9.68174
lfingers 7.12502
lthumb -8.88121 39.4748
rfemur -3.87643 -15.0053 13.76
rtibia 62.5923
rfoot -13.9047 0.241798
rtoes -14.3415
lfemur 8.2615 11.2063 -11.8185
ltibia 19.602
lfoot -22.0908 -23.7118
ltoes -4.06988
317
root 2.3751 16.9773 26.3963 -10.7471 6.78545 -4.25982
lowerback 9.29005 0.0463854 -0.762819
upperback 3.68372 0.0397009 1.69388
thorax -1.3899 0.00798965 2.17494
lowerneck -14.6694 -0.890632 -6.6371
upperneck 20.5079 -1.85003 9.85578
head 8.98214 -0.329394 4.28581
rclavicle -1.86361e-017 -2.18663e-015
rhumerus -37.3664 8.47885 -91.8701
rradius 29.1996
rwrist 36.4226
rhand -28.0609 -12.2196
rfingers 7.12502
rthumb -1.44475 -42.1945
lclavicle -1.86361e-017 -2.18663e-015
lhumerus -34.2314 -30.5728 100.825
lradius 19.4721
lwrist -11.4669
lhand -36.0542 9.47619
lfingers 7.12502
lthumb -9.16208 39.2572
rfemur -5.25364 -15.3428 14.0717
rtibia 61.6447
rfoot -14.6877 0.491933
rtoes -14.4433
lfemur 8.87437 10.8835 -11.8443
ltibia 19.5206
lfoot -23.131 -23.5443
ltoes -6.13745
318
root 2.39123 16.9524 26.5505 -10.8224 7.22161 -4.36148
lowerback 9.42533 -0.0497285 -0.797463
upperback 3.72434 -0.0898697 1.73309
thorax -1.41627 -0.0570729 2.2491
lowerneck -14.6454 -0.923697 -6.69353
upperneck 20.5795 -1.90829 9.94389
head 9.00888 -0.351758 4.32178
rclavicle 7.71533e-015 7.35503e-015
rhumerus -37.9472 6.63826 -90.6183
rradius 28.4356
rwrist 37.5731
rhand -27.8341 -12.4307
rfingers 7.12502
rthumb -1.22567 -42.4069
lclavicle 7.71533e-015 7.35503e-015
lhumerus -32.3635 -30.9503 100.471
lradius 19.5994
lwrist -11.7659
lhand -36.0585 9.44013
lfingers 7.12502
lthumb -9.16621 39.2209
rfemur -6.37147 -15.9333 14.5816
rtibia 60.2933
rfoot -15.4164 0.0545028
rtoes -15.3918
lfemur 9.45043 10.7451 -11.6224
ltibia 19.5581
lfoot -23.4977 -23.9711
ltoes -4.84136
319
root 2.41412 16.9356 26.7091 -10.9108 7.63075 -4.49535
lowerback 9.63033 -0.270083 -0.872849
upperback 3.75312 -0.386654 1.84002
thorax -1.48398 -0.206017 2.43541
lowerneck -14.7471 -0.825101 -6.7595
upperneck 20.7336 -1.75529 9.92766
head 9.06602 -0.283693 4.35147
rclavicle -1.34366e-014 3.57812e-015
rhumerus -38.4176 5.03467 -89.2554
rradius 27.5213
rwrist 38.9838
rhand -28.1832 -12.5749
rfingers 7.12502
rthumb -1.56286 -42.5489
lclavicle -1.34366e-014 3.57812e-015
lhumerus -30.5218 -31.091 100.143
lradius 20.0318
lwrist -11.107
lhand -35.7329 9.77792
lfingers 7.12502
lthumb -8.8521 39.5722
rfemur -7.42445 -16.3806 15.0634
rtibia 58.7518
rfoot -16.2925 -0.107613
rtoes -15.1327
lfemur 10.2248 10.3273 -11.483
ltibia 19.2533
lfoot -23.8627 -23.9224
ltoes -5.12215
320
root 2.42546 16.9413 26.9001 -10.5714 6.2482 -6.26044
lowerback 8.61632 -0.041985 0.733105
upperback 3.74916 0.0513159 2.43367
thorax -0.951703 0.0188493 2.09404
lowerneck -14.7927 -0.747866 -6.76897
upperneck 20.898 -1.65804 9.94943
head 9.12162 -0.23443 4.37821
rclavicle 9.59136e-015 -6.95746e-015
rhumerus -38.9902 3.47697 -87.9728
rradius 26.7036
rwrist 40.0043
rhand -28.265 -12.7275
rfingers 7.12502
rthumb -1.64184 -42.701
lclavicle 9.59136e-015 -6.95746e-015
lhumerus -28.7589 -30.8783 99.5198
lradius 19.9508
lwrist -12.6879
lhand -36.4144 8.99444
lfingers 7.12502
lthumb -9.50965 38.7599
rfemur -9.11921 -15.7871 17.573
rtibia 56.8446
rfoot -16.6356 0.250213
rtoes -15.2265
lfemur 10.8326 10.4486 -9.73608
ltibia 18.8992
lfoot -24.3702 -22.7753
ltoes -5.45387
